<svg xmlns="http://www.w3.org/2000/svg" viewBox="0 0 900 1280" fill="none" role="img" aria-hidden="true">
  <title>Schema field</title>
  <desc>Original geometric watermark: Orthodox cross, seraph, and panel frame. Style reference only; not a copy of a vestment.</desc>
  <g stroke="#f4f0e6" fill="none" stroke-linecap="square" stroke-linejoin="miter">
    <rect x="28" y="20" width="844" height="1240" stroke-width="2.2" stroke-opacity=".55"/>
    <rect x="42" y="34" width="816" height="1212" stroke-width="1" stroke-opacity=".32"/>

    <g stroke-width="2" stroke-opacity=".4">
      <path d="M58 50 v-16 h16 M842 50 v-16 h-16 M58 1230 v16 h16 M842 1230 v16 h-16"/>
      <path d="M70 62 v22 M70 73 h22 M830 62 v22 M830 73 h-22 M70 1218 v-22 M70 1207 h22 M830 1218 v-22 M830 1207 h-22"/>
    </g>

    <g stroke-width="1.4" stroke-opacity=".28">
      <path d="M108 120 v18 M108 129 h18 M792 120 v18 M792 129 h-18"/>
      <path d="M108 1160 v18 M108 1169 h18 M792 1160 v18 M792 1169 h-18"/>
      <path d="M108 210 v14 M108 217 h14 M792 210 v14 M792 217 h-14"/>
      <path d="M108 300 v14 M108 307 h14 M792 300 v14 M792 307 h-14"/>
      <path d="M108 390 v14 M108 397 h14 M792 390 v14 M792 397 h-14"/>
      <path d="M108 980 v14 M108 987 h14 M792 980 v14 M792 987 h-14"/>
      <path d="M108 1070 v14 M108 1077 h14 M792 1070 v14 M792 1077 h-14"/>
    </g>

    <g stroke-opacity=".85" transform="translate(450 150)">
      <circle r="18" stroke-width="2"/>
      <circle r="4" stroke-width="1.5"/>
      <path stroke-width="2" d="M-10 -12 L-52 -86 L-16 -22 M10 -12 L52 -86 L16 -22"/>
      <path stroke-width="2" d="M-16 -2 L-96 -22 L-22 12 M16 -2 L96 -22 L22 12"/>
      <path stroke-width="2" d="M-12 10 L-70 58 L-10 24 M12 10 L70 58 L10 24"/>
    </g>

    <g stroke-width="2.4" stroke-opacity=".4" transform="translate(450 300)">
      <path d="M0 -26 V26 M-26 0 H26 M-16 -16 L16 16 M-16 16 L16 -16"/>
      <circle r="4.5" stroke-width="1.6"/>
    </g>

    <g stroke-width="2" stroke-opacity=".3" transform="translate(168 300)">
      <path d="M0 -16 V16 M-16 0 H16 M-10 -10 L10 10 M-10 10 L10 -10"/>
    </g>
    <g stroke-width="2" stroke-opacity=".3" transform="translate(732 300)">
      <path d="M0 -16 V16 M-16 0 H16 M-10 -10 L10 10 M-10 10 L10 -10"/>
    </g>

    <g transform="translate(450 500)" stroke-opacity="1">
      <path d="M0 -250 V270" stroke-width="9"/>
      <path d="M-48 -188 H48" stroke-width="6"/>
      <path d="M-156 -100 H156" stroke-width="10"/>
      <path d="M-60 158 L66 206" stroke-width="6.5"/>
    </g>

    <g stroke-width="2" stroke-opacity=".34">
      <path d="M250 470 L292 430 L278 468 Z"/>
      <path d="M268 452 L318 1040"/>
      <circle cx="620" cy="470" r="11"/>
      <path d="M620 482 L668 1040"/>
    </g>

    <g transform="translate(450 830)" stroke-opacity=".7" stroke-width="2.6">
      <circle cy="-6" r="20"/>
      <path d="M-14 12 Q0 26 14 12"/>
      <path d="M-8 2 h-3 M8 2 h3"/>
      <path d="M-36 36 L36 8 M-36 8 L36 36" stroke-width="3"/>
    </g>

    <g stroke-width="2.2" stroke-opacity=".32" transform="translate(168 690)">
      <path d="M0 -22 V22 M-22 0 H22 M-13 -13 L13 13 M-13 13 L13 -13"/>
    </g>
    <g stroke-width="2.2" stroke-opacity=".32" transform="translate(732 690)">
      <path d="M0 -22 V22 M-22 0 H22 M-13 -13 L13 13 M-13 13 L13 -13"/>
    </g>
  </g>
</svg>
