<svg xmlns="http://www.w3.org/2000/svg" width="84" height="84" viewBox="0 0 84 84">
  <rect width="84" height="84" fill="#12060e"/>
  <g>
    <rect x="2" y="2" width="18" height="13" fill="#2c1226"/>
    <rect x="22" y="3" width="14" height="12" fill="#3d1630"/>
    <rect x="38" y="2" width="16" height="11" fill="#24162e"/>
    <rect x="56" y="3" width="12" height="13" fill="#4a1832"/>
    <rect x="70" y="2" width="12" height="10" fill="#2a1428"/>
    <rect x="3" y="17" width="12" height="14" fill="#3a142c"/>
    <rect x="17" y="18" width="16" height="12" fill="#221428"/>
    <rect x="35" y="16" width="11" height="15" fill="#53182e"/>
    <rect x="48" y="17" width="15" height="13" fill="#2e1836"/>
    <rect x="65" y="16" width="16" height="14" fill="#3c2030"/>
    <rect x="2" y="33" width="15" height="12" fill="#2a1832"/>
    <rect x="19" y="34" width="13" height="11" fill="#6a5430"/>
    <rect x="34" y="33" width="18" height="13" fill="#321428"/>
    <rect x="54" y="32" width="12" height="14" fill="#451830"/>
    <rect x="68" y="33" width="14" height="12" fill="#241830"/>
    <rect x="3" y="48" width="17" height="13" fill="#3a1832"/>
    <rect x="22" y="47" width="14" height="15" fill="#26142a"/>
    <rect x="38" y="49" width="12" height="11" fill="#5c1e34"/>
    <rect x="52" y="48" width="16" height="13" fill="#2c1630"/>
    <rect x="70" y="47" width="11" height="14" fill="#3e2438"/>
    <rect x="2" y="64" width="13" height="16" fill="#2e1428"/>
    <rect x="17" y="65" width="16" height="14" fill="#42182e"/>
    <rect x="35" y="63" width="11" height="17" fill="#24182c"/>
    <rect x="48" y="64" width="15" height="15" fill="#5a3040"/>
    <rect x="65" y="65" width="16" height="14" fill="#321830"/>
  </g>
</svg>
